# xmcd
# 
# Track frame offsets:
#     150
#     13488
#     27410
#     45650
#     60322
#     73253
#     88821
#     105551
#     119237
#     131933
#     146115
#     158899
#     174218
#     195580
# 
# Disc length: 2803
# 
# Revision: 0
# Processed by: cddbd v1.5.2PL0 Copyright (c) Steve Scherf et al.
# Submitted via: fre:ac v1.0.31
# 
DISCID=d20af10e
DTITLE=Various Artist - Country Highway - Die Zweite
DYEAR=2002
DGENRE=Country
TTITLE0=Country Roads - Trucker sind Freunde
TTITLE1=Linda Feller - Du weisst, was Frauen lieben
TTITLE2=Jonny Hill - Wölfe und Schafe
TTITLE3=Larry Schuba& Western Union - Cowboyboots and Bluejeans
TTITLE4=Hanna and Danna - Du musst das Leben eben nehmen
TTITLE5=Greyhounds - Wenn die Lichter angeh'n am Highway
TTITLE6=Gunter Gabriel - Farer, du bist Deutschlands bester Mann
TTITLE7=Joe Hodgkins Boss Band - Es gibt immer einen Grund
TTITLE8=Country Rose - Du bist das Feuer tief in meiner Seele
TTITLE9=Trucks aus dem Zillertal - Was'n Cowboy alles braucht
TTITLE10=Mike Hermann - Irgendwann, Irgendwoo und Irgendwie
TTITLE11=Iris McCollins - König der Nacht
TTITLE12=Larry Schuba &Western Union - Sag zu Daddy
TTITLE13=Dagmar - Helden gibt es Überall
EXTD=
EXTT0=
EXTT1=
EXTT2=
EXTT3=
EXTT4=
EXTT5=
EXTT6=
EXTT7=
EXTT8=
EXTT9=
EXTT10=
EXTT11=
EXTT12=
EXTT13=
PLAYORDER=
